# Blender v3.0.0 OBJ File: 'AAAAA.blend'
# www.blender.org
mtllib palm_small__2_.mtl
o palm_small__2__Scene.011
v 11.503129 -0.627816 -10.422031
v 11.203349 -0.714198 -10.590302
v 11.724804 -0.842553 -10.815546
v 12.198078 -0.945401 -10.050241
v 12.595543 -1.284844 -10.192347
v 12.499804 -1.484670 -9.948730
v 11.455190 -1.357588 -11.831698
v 11.193512 -1.284009 -11.702524
v 11.418880 -1.666987 -11.949438
v 10.852378 -0.838446 -10.789698
v 10.857271 -0.946605 -11.102751
v 11.306190 -0.649622 -10.745009
v 12.345862 -0.871679 -11.142365
v 12.602998 -1.290747 -11.255364
v 12.523453 -0.981808 -10.856461
v 11.964693 -0.653846 -10.901186
v 12.196601 -1.010684 -11.396182
v 11.538667 -0.827364 -10.668109
v 11.807958 -0.762665 -11.196014
v 11.323130 -0.714114 -11.071983
v 11.594752 -0.698956 -11.066421
v 11.677409 -0.823428 -10.631345
v 11.280671 -0.752978 -11.037913
v 12.519879 -1.021190 -10.634357
v 11.978237 -0.630708 -10.553638
v 12.114516 -0.754592 -10.862663
v 11.730988 -1.285502 -11.742050
v 11.476534 -1.124228 -11.724337
v 11.764183 -0.833506 -10.680369
v 12.362450 -0.867425 -10.350997
v 11.499036 -0.864474 -11.511584
v 11.820209 -0.925659 -11.520718
v 11.201488 -0.955692 -11.479545
v 11.181971 -1.153451 -11.621547
v 10.541883 -1.263336 -10.805805
v 10.817192 -0.962398 -10.483667
v 11.372629 -1.370942 -9.596390
v 11.171146 -1.179469 -9.742251
v 11.590406 -0.924960 -9.848705
v 11.298532 -0.812650 -9.986559
v 11.000183 -0.934790 -10.144849
v 12.783368 -1.514286 -11.049238
v 10.906988 -1.398792 -9.818486
v 11.807397 -0.717368 -10.261861
v 11.914534 -0.777400 -11.112189
v 10.312986 -2.109504 -10.854135
v 10.495049 -1.513025 -11.102798
v 10.346523 -1.692021 -10.828208
v 10.458335 -1.565863 -10.530755
v 11.279819 -0.724299 -10.439741
v 11.778025 -0.691500 -10.274716
v 11.529045 -0.839400 -10.775200
v 12.114308 -0.725144 -10.606860
v 12.511395 -1.469839 -11.469766
v 12.665037 -1.323144 -10.540806
v 12.763655 -1.570907 -10.388267
v 12.725154 -1.672567 -10.127183
v 12.846816 -2.049741 -10.049048
v 12.885746 -1.969859 -11.370921
v 12.742660 -1.630145 -11.306660
v 11.078047 -1.550712 -9.626535
v 10.982077 -1.944078 -9.509069
v 11.452697 -0.880395 -10.567836
v 11.507722 -0.880360 -10.794687
v 11.717866 -0.779581 -10.626935
v 11.719351 -0.884128 -10.893115
v 11.928222 -0.888860 -10.789003
v 11.977052 -0.890994 -10.560748
v 11.829070 -0.888922 -10.380232
v 11.595710 -0.884205 -10.383386
v 11.915969 -2.374335 -10.122401
v 11.441932 -2.364753 -10.128809
v 11.362668 -2.123764 -9.949765
v 12.000038 -2.136647 -9.941150
v 11.151421 -2.357013 -10.503491
v 11.263197 -2.356943 -10.964307
v 11.122349 -2.113262 -11.073141
v 10.972059 -2.113356 -10.453549
v 11.693089 -2.364596 -11.164249
v 12.117382 -2.374209 -10.952760
v 12.270851 -2.136478 -11.057616
v 11.700365 -2.123552 -11.341976
v 12.216573 -2.378543 -10.489094
v 12.404218 -2.142305 -10.434190
v 12.489542 -1.826575 -10.409408
v 12.341418 -1.820102 -11.101813
v 11.332750 -1.805981 -9.871384
v 12.040643 -1.820290 -9.861814
v 11.065840 -1.794318 -11.119056
v 10.898922 -1.794423 -10.430908
v 11.707811 -1.805747 -11.417636
v 12.242466 -1.226606 -10.482501
v 11.940341 -1.222377 -10.113952
v 11.463903 -1.212746 -10.120392
v 11.171922 -1.204967 -10.496972
v 11.284264 -1.204897 -10.960119
v 11.716333 -1.212588 -11.161076
v 12.142774 -1.222250 -10.948515
vt 0.757098 0.220144
vt 0.762363 0.112362
vt 0.809979 0.143231
vt 0.409408 0.825635
vt 0.352537 0.814083
vt 0.406105 0.745128
vt 0.461398 0.812937
vt 0.461398 0.895860
vt 0.407727 0.899562
vt 0.871088 0.209299
vt 0.871525 0.297482
vt 0.816785 0.298180
vt 0.623296 0.672170
vt 0.629829 0.715044
vt 0.581074 0.699483
vt 0.814508 0.225546
vt 0.634158 0.769864
vt 0.633994 0.844068
vt 0.580858 0.772708
vt 0.683405 0.716368
vt 0.684049 0.758135
vt 0.294170 0.845392
vt 0.240410 0.834651
vt 0.294037 0.761400
vt 0.347237 0.831528
vt 0.297793 0.920141
vt 0.100101 0.723724
vt 0.116230 0.818533
vt 0.058134 0.756571
vt 0.684049 0.839095
vt 0.359531 0.706449
vt 0.634080 0.916301
vt 0.581450 0.846765
vt 0.288995 0.616576
vt 0.292473 0.685557
vt 0.243104 0.718793
vt 0.343314 0.710524
vt 0.061012 0.828844
vt 0.061336 0.905066
vt 0.355866 0.903930
vt 0.006585 0.910207
vt 0.002650 0.820910
vt 0.180215 0.693305
vt 0.186098 0.616576
vt 0.125465 0.688165
vt 0.919263 0.246782
vt 0.912401 0.302375
vt 0.969150 0.238085
vt 0.930585 0.537426
vt 0.934208 0.462676
vt 0.876825 0.548166
vt 0.523568 0.768892
vt 0.521888 0.694964
vt 0.466698 0.780444
vt 0.575558 0.781590
vt 0.575558 0.698667
vt 0.527720 0.616576
vt 0.881839 0.461518
vt 0.520265 0.849398
vt 0.929960 0.074883
vt 0.980015 0.079856
vt 0.930046 0.002650
vt 0.877042 0.219469
vt 0.925798 0.203908
vt 0.941859 0.385467
vt 0.980015 0.160816
vt 0.930126 0.149088
vt 0.876825 0.146244
vt 0.983653 0.551289
vt 0.930452 0.621417
vt 0.179892 0.769528
vt 0.121530 0.777462
vt 0.177014 0.841801
vt 0.235110 0.779837
vt 0.128542 0.876708
vt 0.235110 0.694979
vt 0.983653 0.464463
vt 0.928889 0.697261
vt 0.979730 0.672293
vt 0.816785 0.467453
vt 0.823746 0.385467
vt 0.764544 0.456780
vt 0.814508 0.540089
vt 0.757098 0.545490
vt 0.470027 0.690597
vt 0.809980 0.622403
vt 0.871525 0.468151
vt 0.561803 0.877700
vt 0.879520 0.664025
vt 0.877416 0.072187
vt 0.871525 0.616511
vt 0.871088 0.556335
vt 0.798920 0.002650
vt 0.805676 0.071980
vt 0.805678 0.693653
vt 0.762365 0.653272
vt 0.401336 0.616576
vt 0.402919 0.681888
vt 0.517079 0.912639
vt 0.473690 0.888078
vt 0.447643 0.716828
vt 0.050538 0.689449
vt 0.009663 0.721664
vt 0.042405 0.616576
vt 0.850682 0.674872
vt 0.798921 0.762984
vt 0.169418 0.908923
vt 0.161286 0.981795
vt 0.218981 0.874648
vt 0.259730 0.104623
vt 0.383670 0.022959
vt 0.317647 0.139829
vt 0.365591 0.152997
vt 0.409429 0.149409
vt 0.455579 0.134616
vt 0.509345 0.097805
vt 0.188823 0.002650
vt 0.564105 0.010342
vt 0.450310 0.380642
vt 0.597769 0.597979
vt 0.412323 0.589190
vt 0.495514 0.366456
vt 0.339406 0.386415
vt 0.334965 0.320303
vt 0.352651 0.335029
vt 0.293244 0.379442
vt 0.380213 0.319073
vt 0.411515 0.297831
vt 0.407644 0.315139
vt 0.374372 0.301136
vt 0.434171 0.328732
vt 0.450432 0.313257
vt 0.234612 0.611276
vt 0.464899 0.290782
vt 0.415291 0.277272
vt 0.751798 0.493896
vt 0.532085 0.333557
vt 0.318010 0.298058
vt 0.249178 0.351155
vt 0.368981 0.279756
vt 0.087289 0.532588
vt 0.475921 0.216255
vt 0.565208 0.209305
vt 0.002650 0.194853
vt 0.207942 0.222478
vt 0.301670 0.223168
vt 0.363094 0.222736
vt 0.416014 0.219063
vt 0.751798 0.148539
vn 0.6230 0.4667 0.6277
vn 0.7851 0.5555 -0.2737
vn 0.2938 0.8354 -0.4645
vn 0.5762 0.8141 -0.0723
vn 0.1885 0.3962 -0.8986
vn 0.5677 0.8135 -0.1261
vn 0.1632 0.9128 -0.3745
vn 0.0972 0.6256 -0.7741
vn -0.3201 0.5732 -0.7543
vn -0.3087 0.9113 -0.2725
vn -0.7850 0.5817 -0.2132
vn -0.3912 0.8678 0.3065
vn -0.1071 0.5287 0.8420
vn -0.1902 0.9047 -0.3812
vn 0.8465 0.4892 -0.2101
vn 0.2619 0.9399 0.2191
vn -0.9008 0.0986 -0.4229
vn -0.9421 0.0551 0.3307
vn -0.8857 0.4146 -0.2089
vn -0.8367 0.4765 0.2699
vn 0.1340 0.8880 0.4399
vn 0.8302 0.5297 0.1738
vn 0.5085 0.8596 -0.0503
vn -0.3973 0.8815 0.2553
vn 0.0121 0.8806 -0.4737
vn -0.3257 0.3694 -0.8703
vn -0.3386 0.8877 -0.3120
vn 0.5050 0.8629 0.0187
vn 0.1365 0.8328 -0.5364
vn -0.4244 0.8992 -0.1063
vn -0.4275 0.8825 -0.1962
vn 0.5777 0.5234 -0.6264
vn -0.1357 0.9454 0.2963
vn 0.2143 0.3253 -0.9210
vn -0.3036 0.4210 -0.8548
vn 0.3871 0.9082 -0.1591
vn -0.2702 0.6240 -0.7332
vn 0.2360 0.4660 -0.8527
vn -0.8017 0.5804 0.1429
vn -0.5537 0.5862 0.5914
vn -0.1520 0.5839 0.7975
vn -0.6116 0.5337 0.5841
vn 0.3954 0.8815 -0.2583
vn 0.3299 0.9100 0.2511
vn -0.9003 0.4015 0.1681
vn -0.3880 0.9183 -0.0784
vn 0.3200 0.8599 0.3978
vn -0.1988 0.9246 0.3250
vn 0.6579 0.5591 0.5045
vn -0.1926 0.8785 -0.4371
vn 0.5688 0.4952 -0.6567
vn -0.8023 0.5131 -0.3049
vn -0.4637 0.8691 0.1725
vn 0.1709 0.9129 -0.3707
vn -0.4468 0.8796 0.1634
vn 0.3040 0.8618 0.4060
vn 0.0208 0.8889 0.4576
vn 0.8786 0.4610 0.1246
vn 0.7445 0.3570 0.5642
vn 0.7424 0.3447 0.5745
vn 0.8489 0.4186 -0.3226
vn 0.8489 0.4186 -0.3227
vn 0.8594 0.4015 -0.3166
vn 0.6977 0.4056 -0.5906
vn 0.6941 0.3782 -0.6125
vn -0.5282 0.3706 0.7640
vn -0.5375 0.3590 0.7631
vn 0.8995 0.3456 0.2672
vn 0.8996 0.3456 0.2672
vn 0.8996 0.3455 0.2672
vn -0.2983 0.3392 0.8922
vn -0.3055 0.3523 0.8846
vn -0.3714 0.9241 -0.0899
vn 0.1988 0.9126 -0.3573
vn 0.3257 0.9100 0.2565
vn -0.2954 0.9226 0.2481
vn -0.1520 0.9197 -0.3621
vn 0.4107 0.9083 -0.0794
vn 0.0131 0.9163 0.4002
vn -0.0229 -0.6011 0.7989
vn -0.0230 -0.6011 0.7989
vn -0.8085 -0.5549 -0.1962
vn -0.8084 -0.5549 -0.1962
vn 0.3591 -0.5609 -0.7460
vn 0.6125 -0.6048 0.5090
vn -0.6499 -0.5793 0.4920
vn -0.3612 -0.5463 -0.7557
vn 0.7904 -0.5872 -0.1746
vn 0.9488 -0.2403 -0.2052
vn -0.0180 -0.2410 0.9704
vn -0.9518 -0.2019 -0.2309
vn 0.4314 -0.2185 -0.8753
vn 0.7473 -0.2503 0.6155
vn -0.7732 -0.2195 0.5950
vn -0.4160 -0.2014 -0.8868
vn 0.6186 0.6059 0.5002
vn 0.6187 0.6059 0.5002
vn -0.6070 0.6306 0.4836
vn -0.3290 0.5988 -0.7302
vn 0.7920 0.5881 -0.1639
vn 0.0021 0.6244 0.7811
vn -0.7629 0.6195 -0.1849
vn 0.3725 0.5846 -0.7208
vn 0.7210 0.3684 0.5868
vn -0.7211 0.3976 0.5674
vn -0.3862 0.3709 -0.8446
vn 0.9154 0.3535 -0.1925
vn -0.0046 0.3879 0.9217
vn -0.8948 0.3901 -0.2170
vn 0.4236 0.3545 -0.8336
vn -0.0201 -0.9998 -0.0050
usemtl _37_GREEN_LIGHT_LPUP
s 1
f 4/1/1 6/2/1 5/3/1
s 2
f 13/4/2 15/5/2 14/6/2
s 3
f 17/7/3 19/8/3 16/9/3
s 4
f 24/10/4 26/11/4 25/12/4
s 5
f 7/13/5 28/14/5 27/15/5
s 6
f 30/16/6 24/10/6 25/12/6
s 7
f 31/17/7 21/18/7 32/19/7
s 8
f 31/17/8 32/19/8 28/14/8
s 9
f 28/14/9 34/20/9 33/21/9
s 10
f 31/17/10 33/21/10 21/18/10
s 11
f 10/22/11 11/23/11 35/24/11
s 12
f 10/22/12 36/25/12 12/26/12
s 13
f 37/27/13 39/28/13 38/29/13
s 14
f 33/21/14 23/30/14 21/18/14
s 15
f 15/5/15 42/31/15 14/6/15
s 16
f 21/18/16 22/32/16 45/33/16
s 17
f 46/34/17 48/35/17 47/36/17
s 18
f 48/35/18 46/34/18 49/37/18
s 19
f 48/35/19 35/24/19 47/36/19
s 20
f 49/37/20 36/25/20 35/24/20
s 21
f 40/38/21 39/28/21 1/39/21
s 22
f 24/10/22 30/16/22 5/3/22
s 23
f 16/9/23 53/40/23 15/5/23
s 24
f 1/39/24 2/41/24 41/42/24
s 25
f 1/43/25 3/44/25 2/45/25
s 26
f 7/46/26 9/47/26 8/48/26
s 27
f 10/49/27 12/50/27 11/51/27
s 28
f 13/52/28 16/53/28 15/54/28
s 29
f 13/52/29 17/55/29 16/53/29
s 30
f 16/53/30 19/56/30 18/57/30
s 31
f 12/50/31 20/58/31 11/51/31
s 32
f 17/55/32 13/52/32 14/59/32
s 33
f 21/60/33 23/61/33 22/62/33
s 34
f 9/47/34 7/46/34 27/63/34
s 35
f 28/64/35 7/46/35 8/48/35
s 36
f 12/50/36 29/65/36 20/58/36
s 37
f 33/66/37 31/67/37 28/64/37
s 38
f 32/68/38 27/63/38 28/64/38
s 39
f 36/69/39 10/49/39 35/70/39
s 40
f 40/71/40 41/72/40 38/73/40
s 41
f 39/74/41 40/71/41 38/73/41
s 42
f 41/72/42 43/75/42 38/73/42
s 43
f 1/43/43 44/76/43 3/44/43
s 44
f 12/50/44 50/77/44 29/65/44
s 45
f 35/70/45 48/78/45 49/79/45
s 46
f 25/80/46 52/81/46 51/82/46
s 47
f 30/83/47 25/80/47 4/84/47
s 48
f 16/53/48 18/57/48 53/85/48
s 49
f 30/83/49 4/84/49 5/86/49
s 50
f 25/80/50 26/87/50 52/81/50
s 51
f 54/88/51 17/55/51 14/59/51
s 52
f 11/51/52 47/89/52 35/70/52
s 53
f 36/69/53 50/77/53 12/50/53
s 54
f 21/60/54 45/90/54 32/68/54
s 55
f 40/71/55 1/43/55 41/72/55
s 56
f 25/80/56 51/82/56 4/84/56
s 57
f 39/74/57 44/76/57 1/43/57
s 58
f 5/86/58 55/91/58 24/92/58
s 59
f 58/93/59 57/94/60 6/2/60
f 57/95/60 5/86/60 6/96/60
s 60
f 59/97/61 60/98/62 42/31/61
f 60/99/62 14/59/63 42/100/61
s 61
f 60/98/64 59/97/64 54/101/64
s 62
f 14/6/65 60/98/64 54/101/64
s 63
f 61/102/66 38/29/66 43/103/66
f 62/104/67 61/102/66 43/103/66
s 64
f 5/86/68 57/95/69 56/105/68
f 57/95/69 58/106/70 56/105/68
s 65
f 61/107/71 62/108/71 37/109/71
s 66
f 38/73/72 61/107/71 37/109/71
usemtl _11_BROWN_MEDIUM_LPUP
s 67
f 63/110/73 65/111/73 64/112/73
s 68
f 66/113/74 65/111/74 67/114/74
s 69
f 68/115/75 65/111/75 69/116/75
s 70
f 70/117/76 65/111/76 63/110/76
s 71
f 64/112/77 65/111/77 66/113/77
s 72
f 67/114/78 65/111/78 68/115/78
s 73
f 69/116/79 65/111/79 70/118/79
s 74
f 71/119/80 73/120/80 72/121/81
f 71/119/80 74/122/80 73/120/80
s 75
f 75/123/82 77/124/82 76/125/83
f 75/123/82 78/126/82 77/124/82
s 76
f 79/127/84 81/128/84 80/129/84
f 79/127/84 82/130/84 81/128/84
s 77
f 83/131/85 74/122/85 71/119/85
f 83/131/85 84/132/85 74/122/85
s 78
f 72/121/86 78/126/86 75/123/86
f 72/121/86 73/133/86 78/126/86
s 79
f 76/125/87 82/130/87 79/127/87
f 76/125/87 77/124/87 82/130/87
s 80
f 80/129/88 84/132/88 83/131/88
f 80/129/88 81/128/88 84/132/88
s 81
f 81/128/89 85/134/89 84/132/89
f 81/128/89 86/135/89 85/134/89
s 82
f 74/122/90 87/136/90 73/120/90
f 74/122/90 88/137/90 87/136/90
s 83
f 78/126/91 89/138/91 77/124/91
f 78/126/91 90/139/91 89/138/91
s 84
f 82/130/92 86/135/92 81/128/92
f 82/130/92 91/140/92 86/135/92
s 85
f 84/132/93 88/137/93 74/122/93
f 84/132/93 85/134/93 88/137/93
s 86
f 73/133/94 90/139/94 78/126/94
f 73/133/94 87/141/94 90/139/94
s 87
f 77/124/95 91/140/95 82/130/95
f 77/124/95 89/138/95 91/140/95
s 88
f 92/142/96 69/116/96 93/143/96
f 92/142/96 68/115/97 69/116/96
s 89
f 94/144/98 63/110/98 95/145/98
f 94/144/98 70/117/98 63/110/98
s 90
f 96/146/99 66/113/99 97/147/99
f 96/146/99 64/112/99 66/113/99
s 91
f 98/148/100 68/115/100 92/142/100
f 98/148/100 67/114/100 68/115/100
s 92
f 93/143/101 70/118/101 94/149/101
f 93/143/101 69/116/101 70/118/101
s 93
f 95/145/102 64/112/102 96/146/102
f 95/145/102 63/110/102 64/112/102
s 94
f 97/147/103 67/114/103 98/148/103
f 97/147/103 66/113/103 67/114/103
s 95
f 85/134/104 93/143/104 88/137/104
f 85/134/104 92/142/104 93/143/104
s 96
f 87/141/105 95/145/105 90/139/105
f 87/141/105 94/144/105 95/145/105
s 97
f 89/138/106 97/147/106 91/140/106
f 89/138/106 96/146/106 97/147/106
s 98
f 86/135/107 92/142/107 85/134/107
f 86/135/107 98/148/107 92/142/107
s 99
f 88/137/108 94/149/108 87/136/108
f 88/137/108 93/143/108 94/149/108
s 100
f 90/139/109 96/146/109 89/138/109
f 90/139/109 95/145/109 96/146/109
s 101
f 91/140/110 98/148/110 86/135/110
f 91/140/110 97/147/110 98/148/110
s 102
f 80/129/111 76/125/111 79/127/111
f 76/125/111 80/129/111 83/131/111
f 76/125/111 83/131/111 75/123/111
f 75/123/111 83/131/111 71/119/111
f 75/123/111 71/119/111 72/121/111
