# Blender v3.0.0 OBJ File: 'Palm_Island.blend'
# www.blender.org
mtllib Rock.mtl
o Rock_Golf_no_trex.002
v 0.000663 -0.008094 0.008182
v -0.028314 -0.007451 -0.001082
v -0.017929 -0.004152 0.019134
v -0.014984 0.006858 0.016166
v 0.030046 -0.004154 0.005068
v 0.011649 -0.005409 0.000979
v 0.012873 -0.004154 0.012540
v 0.028743 0.002010 0.004169
v 0.011773 0.003309 0.002422
v 0.023523 -0.003916 0.016278
v 0.022393 -0.004154 -0.003710
v 0.013859 0.001847 0.012624
v 0.024343 0.001015 0.013823
v 0.011838 -0.004152 0.011754
v 0.011014 -0.004256 0.000773
v 0.004299 -0.004152 0.022051
v -0.005166 0.011325 -0.017257
v -0.023506 0.009184 -0.000540
v 0.016594 0.007023 -0.003528
v 0.013190 0.006980 -0.014710
v 0.016484 -0.004152 -0.018726
v 0.021358 -0.004152 -0.004496
v 0.003250 0.006941 0.018221
v 0.009147 0.007065 0.001405
v 0.009533 0.007491 0.009669
v -0.007587 -0.007451 -0.022876
v -0.011328 0.008977 0.003318
v 0.020858 0.003413 -0.002848
vt 0.062800 0.714900
vt 0.178540 0.520680
vt 0.209370 0.737130
vt 0.169010 0.192380
vt 0.205460 0.119240
vt 0.295360 0.121960
vt 0.340780 0.239510
vt 0.411280 0.509880
vt 0.323110 0.380340
vt 0.200860 0.419210
vt 0.255000 0.334180
vt 0.525560 0.793020
vt 0.125800 0.827780
vt 0.739890 0.209980
vt 0.767390 0.350060
vt 0.643470 0.417350
vt 0.527640 0.311270
vt 0.599130 0.194770
vt 0.767390 0.073400
vt 0.701310 0.105460
vt 0.555120 0.079920
vt 0.627610 0.141210
vt 0.680150 0.148860
vt 0.660900 0.001040
vt 0.612000 0.083440
vt 0.667350 0.061380
vt 0.001040 0.219380
vt 0.121480 0.244520
vt 0.074400 0.101090
vt 0.106100 0.322930
vt 0.003610 0.373010
vt 0.525560 0.215650
vt 0.183480 0.001040
vt 0.351800 0.020490
vt 0.229970 0.868060
vt 0.235630 0.984930
vt 0.386590 0.998960
vn -0.0370 -0.9587 0.2821
vn 0.0026 1.0000 -0.0046
vn 0.2233 0.9734 0.0509
vn -0.0867 -0.9752 0.2037
vn -0.0320 0.9876 0.1538
vn -0.0170 -0.9997 -0.0162
vn 0.2694 -0.9426 0.1972
vn -0.0174 0.9940 0.1082
vn -0.8532 0.2314 0.4675
vn -0.8594 0.3342 0.3869
vn 0.0841 -0.9938 -0.0733
vn -0.0162 -0.9938 0.1096
vn -0.4022 0.0228 -0.9153
vn -0.3317 0.0413 0.9425
vn -0.9944 -0.0034 0.1057
vn 0.8605 0.1050 0.4985
vn 0.0633 0.9896 0.1288
vn 0.7522 0.0634 -0.6558
vn 0.0560 -0.9970 0.0538
vn -0.4975 0.1485 -0.8547
vn -0.0657 0.4535 0.8888
vn 0.6702 0.2168 -0.7098
vn -0.9633 0.1551 0.2192
vn 0.8722 0.2461 0.4228
vn 0.9813 0.1844 -0.0553
vn 0.9832 0.1663 -0.0754
vn 0.7769 0.2699 0.5688
vn 0.7709 0.2570 0.5828
vn -0.6627 0.2919 -0.6897
vn -0.7059 0.2259 -0.6713
vn 0.8775 0.3973 -0.2687
vn 0.8793 0.3689 -0.3012
vn 0.1740 -0.9847 -0.0038
vn 0.3630 -0.9246 -0.1155
vn -0.1086 0.2857 0.9521
vn -0.1236 0.3134 0.9415
vn 0.3614 0.9301 -0.0649
vn 0.0332 0.9918 0.1231
vn 0.2160 0.3873 -0.8963
vn 0.1277 0.2692 -0.9546
vn 0.5518 0.0445 0.8328
vn 0.4499 0.1150 0.8856
vn 0.0560 -0.9943 0.0904
vn 0.1440 -0.9884 -0.0493
vn -0.0222 0.9874 0.1566
vn 0.0420 0.9946 0.0948
vn 0.0636 0.9893 0.1310
vn 0.0620 0.9898 0.1283
usemtl Model_1__14_BROWN_LIGHTEST_LPUP_4_c41816f2-4c5a-4187-be38-62de7
s off
f 16/1/1 3/2/1 1/3/1
f 24/4/2 19/5/2 20/6/2
f 20/6/3 17/7/3 24/4/3
f 3/2/4 2/8/4 1/3/4
f 18/9/5 4/10/5 27/11/5
f 1/3/6 2/8/6 26/12/6
f 16/1/7 1/3/7 14/13/7
f 27/11/8 17/7/8 18/9/8
f 18/9/9 2/8/9 4/10/9
f 2/8/10 3/2/10 4/10/10
f 6/14/11 11/15/11 5/16/11
f 10/17/12 7/18/12 6/14/12
f 11/19/13 6/14/13 28/20/13
f 7/18/14 10/21/14 12/22/14
f 6/14/15 7/18/15 9/23/15
f 10/21/16 5/24/16 13/25/16
f 28/20/17 9/23/17 12/22/17
f 5/24/18 11/19/18 8/26/18
f 5/16/19 10/17/19 6/14/19
f 6/14/20 9/23/20 28/20/20
f 10/21/21 13/25/21 12/22/21
f 11/19/22 28/20/22 8/26/22
f 7/18/23 12/22/23 9/23/23
f 5/24/24 8/26/24 13/25/24
f 14/27/25 24/4/25 25/28/25
f 14/27/26 15/29/26 24/4/26
f 14/27/27 23/30/27 16/31/27
f 14/27/28 25/28/28 23/30/28
f 26/32/29 18/9/29 17/7/29
f 26/32/30 2/8/30 18/9/30
f 22/33/31 20/6/31 19/5/31
f 22/33/32 21/34/32 20/6/32
f 14/13/33 26/12/33 15/35/33
f 14/13/34 1/3/34 26/12/34
f 3/2/35 23/30/35 4/10/35
f 3/2/36 16/31/36 23/30/36
f 17/7/37 25/28/37 24/4/37
f 17/7/38 27/11/38 25/28/38
f 21/34/39 17/7/39 20/6/39
f 21/34/40 26/32/40 17/7/40
f 15/29/41 19/5/41 24/4/41
f 15/29/42 22/33/42 19/5/42
f 26/12/43 22/36/43 15/35/43
f 26/12/44 21/37/44 22/36/44
f 23/30/45 27/11/45 4/10/45
f 23/30/46 25/28/46 27/11/46
f 12/22/47 13/25/47 8/26/47
f 8/26/48 28/20/48 12/22/48
