# Blender v3.2.0 OBJ File: 'Palm_Island.blend'
# www.blender.org
mtllib Grass.mtl
o Grass_Golf_no_trex.005
v 0.009346 0.001164 0.001031
v 0.007689 0.003389 -0.001427
v -0.000602 0.002283 0.000517
v -0.004208 0.001168 -0.000204
v -0.006780 0.001713 0.000516
v -0.006801 0.003651 0.001318
v -0.007755 -0.001929 0.000263
v -0.002968 0.002500 0.001159
v -0.001479 0.000891 -0.002078
v 0.003902 0.002574 0.000279
v 0.003335 0.004310 0.001294
v -0.005643 0.001307 -0.000317
v -0.004923 0.002916 -0.001003
v -0.010175 0.001168 0.000577
v -0.004333 0.000273 0.000196
v 0.000126 -0.002123 -0.000063
v 0.002195 -0.002199 -0.000010
v -0.002308 -0.002161 0.000207
v 0.008638 -0.000293 0.000346
v 0.006945 -0.001930 0.000216
v 0.008188 0.000454 0.000411
v 0.005155 -0.002196 0.000170
v 0.005205 -0.002175 0.000068
v 0.006279 -0.000765 0.000095
v 0.005978 0.003689 0.000088
v 0.004552 0.002143 0.000051
v 0.003782 -0.002139 0.000031
v 0.003195 -0.002139 0.000016
v 0.002626 0.002663 0.000245
v 0.001782 -0.002122 -0.000020
v -0.000058 0.000801 0.000391
v -0.002033 -0.002164 0.000214
v -0.002321 0.001181 0.000260
v -0.003677 -0.002164 0.000172
v -0.004665 -0.002151 0.000146
v -0.005999 -0.002164 0.000112
v -0.004525 -0.002100 0.000338
v -0.005091 -0.002126 0.000323
v -0.007116 -0.000583 0.000280
v -0.002861 0.000294 0.000383
v 0.003186 -0.002196 0.000122
v 0.002344 0.002120 0.000100
v -0.001191 -0.000261 -0.001168
v 0.000337 -0.002161 0.000248
v 0.000967 0.000347 -0.000104
v 0.006420 -0.000644 0.000202
v 0.004321 -0.002196 0.000148
v 0.004267 -0.002175 0.000044
v 0.005258 -0.000005 0.000069
v 0.006359 0.001573 -0.000407
v 0.007349 0.000644 -0.000137
v 0.006001 0.001675 0.000088
v 0.004357 -0.002177 0.000046
v 0.003080 -0.002164 0.000013
v 0.000896 0.003879 -0.000043
v 0.002482 -0.002066 -0.000002
v 0.001574 0.002333 -0.000025
v 0.000137 0.002219 -0.000062
v -0.004171 -0.002151 0.000159
v -0.008241 0.002295 0.000054
v -0.008172 0.000864 0.000056
v -0.007425 0.001358 0.000075
v -0.004596 -0.002113 0.000148
v -0.005827 0.002143 0.000589
v -0.005863 -0.002149 0.000312
v -0.005511 -0.002122 0.000321
v -0.004121 -0.002172 0.000160
v -0.003221 -0.002159 0.000183
v 0.002330 -0.002196 0.000100
v 0.001944 0.000061 0.000090
v 0.002937 0.000266 0.000115
v 0.001558 0.002318 0.000080
v 0.001574 -0.001085 -0.000025
v -0.000500 0.000537 -0.001202
v -0.000673 -0.000553 0.000139
v 0.001456 -0.000983 0.000086
v 0.009410 0.001218 0.000849
v 0.007661 0.003308 -0.001608
v -0.000587 0.002305 0.000318
v -0.004197 0.001122 -0.000399
v -0.006783 0.001753 0.000320
v -0.006821 0.003727 0.001134
v -0.007759 -0.001924 0.000063
v -0.002945 0.002567 0.000972
v -0.001380 0.000799 -0.002226
v 0.003911 0.002627 0.000086
v 0.003347 0.004413 0.001123
v -0.005633 0.001254 -0.000510
v -0.004917 0.002835 -0.001186
v -0.010190 0.001177 0.000378
v -0.004308 0.000303 -0.000000
v 0.000167 -0.002170 -0.000253
v 0.002200 -0.002199 -0.000209
v -0.002305 -0.002173 0.000007
v 0.008661 -0.000263 0.000150
v 0.006954 -0.001926 0.000016
v 0.008224 0.000489 0.000217
v 0.005160 -0.002196 -0.000030
v 0.005211 -0.002175 -0.000132
v 0.006276 -0.000786 -0.000103
v 0.005983 0.003689 -0.000112
v 0.004557 0.002143 -0.000149
v 0.003787 -0.002128 -0.000168
v 0.003201 -0.002128 -0.000183
v 0.002635 0.002719 0.000054
v 0.001787 -0.002122 -0.000220
v -0.000045 0.000813 0.000191
v -0.002025 -0.002160 0.000014
v -0.002310 0.001190 0.000061
v -0.003671 -0.002160 -0.000028
v -0.004660 -0.002176 -0.000052
v -0.005994 -0.002164 -0.000088
v -0.004521 -0.002086 0.000138
v -0.005086 -0.002113 0.000123
v -0.007122 -0.000577 0.000080
v -0.002839 0.000333 0.000188
v 0.003191 -0.002196 -0.000078
v 0.002349 0.002120 -0.000100
v -0.001114 -0.000335 -0.001337
v 0.000333 -0.002177 0.000049
v 0.000955 0.000314 -0.000301
v 0.006433 -0.000640 0.000003
v 0.004326 -0.002196 -0.000052
v 0.004272 -0.002175 -0.000156
v 0.005247 -0.000027 -0.000129
v 0.006342 0.001509 -0.000595
v 0.007348 0.000588 -0.000329
v 0.006006 0.001675 -0.000112
v 0.004362 -0.002177 -0.000154
v 0.003086 -0.002164 -0.000187
v 0.000901 0.003879 -0.000243
v 0.002487 -0.002066 -0.000202
v 0.001579 0.002333 -0.000225
v 0.000142 0.002219 -0.000262
v -0.004164 -0.002175 -0.000039
v -0.008236 0.002295 -0.000146
v -0.008167 0.000864 -0.000144
v -0.007419 0.001358 -0.000125
v -0.004591 -0.002113 -0.000052
v -0.005833 0.002189 0.000395
v -0.005857 -0.002149 0.000112
v -0.005506 -0.002122 0.000121
v -0.004109 -0.002160 -0.000039
v -0.003216 -0.002144 -0.000016
v 0.002335 -0.002196 -0.000100
v 0.001949 0.000061 -0.000110
v 0.002942 0.000266 -0.000084
v 0.001563 0.002318 -0.000120
v 0.001602 -0.001116 -0.000221
v -0.000423 0.000459 -0.001369
v -0.000677 -0.000572 -0.000061
v 0.001446 -0.001009 -0.000112
vt 0.429410 0.472520
vt 0.470650 0.384910
vt 0.476340 0.463520
vt 0.483860 0.138980
vt 0.412870 0.159160
vt 0.483950 0.004210
vt 0.635800 0.107660
vt 0.571850 0.119450
vt 0.585940 0.004210
vt 0.165100 0.298640
vt 0.122070 0.199840
vt 0.231510 0.241440
vt 0.747000 0.389530
vt 0.805310 0.476200
vt 0.736590 0.502420
vt 0.950750 0.636210
vt 0.926700 0.739410
vt 0.897550 0.625810
vt 0.716580 0.090450
vt 0.791890 0.122760
vt 0.746230 0.301490
vt 0.800300 0.140930
vt 0.875720 0.142310
vt 0.875720 0.273180
vt 0.094360 0.307060
vt 0.113650 0.388150
vt 0.059640 0.370560
vt 0.028630 0.588290
vt 0.020200 0.518960
vt 0.113650 0.526320
vt 0.014850 0.722780
vt 0.113650 0.691310
vt 0.113650 0.813800
vt 0.412870 0.597200
vt 0.485480 0.572510
vt 0.485480 0.709960
vt 0.458740 0.677120
vt 0.483950 0.246840
vt 0.422400 0.351390
vt 0.417500 0.255690
vt 0.462960 0.376490
vt 0.317980 0.108210
vt 0.239920 0.111410
vt 0.274430 0.004210
vt 0.255850 0.341810
vt 0.317980 0.360360
vt 0.606180 0.381120
vt 0.635800 0.377960
vt 0.251320 0.368770
vt 0.317980 0.443950
vt 0.246870 0.461690
vt 0.317980 0.700650
vt 0.283380 0.709290
vt 0.231510 0.047510
vt 0.160090 0.004210
vt 0.780990 0.683740
vt 0.805310 0.677460
vt 0.825730 0.908780
vt 0.872680 0.908380
vt 0.870540 0.975180
vt 0.813720 0.707050
vt 0.872680 0.666920
vt 0.922620 0.395750
vt 0.950750 0.389530
vt 0.777920 0.015410
vt 0.791890 0.004210
vt 0.810800 0.004210
vt 0.856500 0.004850
vt 0.704500 0.822950
vt 0.704500 0.950670
vt 0.661560 0.957340
vt 0.652870 0.819370
vt 0.704500 0.695230
vt 0.666720 0.712290
vt 0.017980 0.635310
vt 0.087020 0.596710
vt 0.397510 0.634110
vt 0.362910 0.368770
vt 0.326400 0.616370
vt 0.429410 0.472520
vt 0.476340 0.463520
vt 0.470650 0.384910
vt 0.483860 0.138980
vt 0.483950 0.004210
vt 0.412870 0.159160
vt 0.635800 0.107660
vt 0.585940 0.004210
vt 0.571850 0.119450
vt 0.165100 0.298640
vt 0.231510 0.241440
vt 0.122070 0.199840
vt 0.747000 0.389530
vt 0.736590 0.502420
vt 0.805310 0.476200
vt 0.950750 0.636210
vt 0.897550 0.625810
vt 0.926700 0.739410
vt 0.716580 0.090450
vt 0.746230 0.301490
vt 0.791890 0.122760
vt 0.800300 0.140930
vt 0.875720 0.273180
vt 0.875720 0.142310
vt 0.094360 0.307060
vt 0.059640 0.370560
vt 0.113650 0.388150
vt 0.028630 0.588290
vt 0.113650 0.526320
vt 0.020200 0.518960
vt 0.014850 0.722780
vt 0.113650 0.813800
vt 0.113650 0.691310
vt 0.412870 0.597200
vt 0.485480 0.572510
vt 0.458740 0.677120
vt 0.485480 0.709960
vt 0.483950 0.246840
vt 0.417500 0.255690
vt 0.422400 0.351390
vt 0.462960 0.376490
vt 0.317980 0.108210
vt 0.274430 0.004210
vt 0.239920 0.111410
vt 0.255850 0.341810
vt 0.317980 0.360360
vt 0.606180 0.381120
vt 0.635800 0.377960
vt 0.251320 0.368770
vt 0.246870 0.461690
vt 0.317980 0.443950
vt 0.283380 0.709290
vt 0.317980 0.700650
vt 0.231510 0.047510
vt 0.160090 0.004210
vt 0.780990 0.683740
vt 0.805310 0.677460
vt 0.825730 0.908780
vt 0.870540 0.975180
vt 0.872680 0.908380
vt 0.813720 0.707050
vt 0.872680 0.666920
vt 0.950750 0.389530
vt 0.922620 0.395750
vt 0.791890 0.004210
vt 0.777920 0.015410
vt 0.856500 0.004850
vt 0.810800 0.004210
vt 0.704500 0.822950
vt 0.661560 0.957340
vt 0.704500 0.950670
vt 0.652870 0.819370
vt 0.704500 0.695230
vt 0.666720 0.712290
vt 0.017980 0.635310
vt 0.087020 0.596710
vt 0.397510 0.634110
vt 0.326400 0.616370
vt 0.362910 0.368770
vn -0.3199 -0.2712 0.9078
vn 0.1365 0.4075 0.9029
vn -0.0582 -0.5180 0.8534
vn -0.0760 -0.1122 0.9908
vn -0.0324 0.4044 0.9140
vn 0.1006 -0.3795 0.9197
vn 0.0708 -0.0458 0.9964
vn -0.1142 -0.3344 0.9355
vn -0.4944 0.4594 0.7379
vn -0.0257 0.0000 0.9997
vn -0.0157 0.0584 0.9982
vn 0.0040 -0.0837 0.9965
vn -0.0988 -0.0299 0.9947
vn -0.0257 0.0001 0.9997
vn -0.0669 0.2117 0.9750
vn 0.1271 0.2041 0.9707
vn -0.0296 -0.0517 0.9982
vn -0.0256 -0.0507 0.9984
vn -0.0608 -0.0190 0.9980
vn -0.0257 -0.0160 0.9995
vn -0.0674 0.1078 0.9919
vn -0.0255 0.1256 0.9917
vn -0.0225 -0.0661 0.9976
vn -0.0452 -0.0700 0.9965
vn -0.0245 -0.0775 0.9967
vn -0.1258 -0.0254 0.9917
vn -0.3143 0.3102 0.8972
vn -0.2587 0.3282 0.9085
vn 0.0439 0.0955 0.9945
vn 0.0570 0.1616 0.9852
vn 0.3200 0.2675 -0.9088
vn -0.1353 -0.4088 -0.9025
vn 0.0589 0.5150 -0.8552
vn 0.0759 0.1120 -0.9908
vn 0.0332 -0.4058 -0.9133
vn -0.1008 0.3777 -0.9204
vn -0.0708 0.0457 -0.9964
vn 0.1132 0.3336 -0.9359
vn 0.4954 -0.4608 -0.7364
vn 0.0214 0.0012 -0.9998
vn 0.0158 -0.0583 -0.9982
vn -0.0055 0.0860 -0.9963
vn 0.1000 0.0303 -0.9945
vn 0.0257 0.0002 -0.9997
vn 0.0257 0.0001 -0.9997
vn 0.0257 0.0009 -0.9997
vn 0.0652 -0.2109 -0.9753
vn -0.1264 -0.2044 -0.9707
vn 0.0257 -0.0000 -0.9997
vn 0.0290 0.0527 -0.9982
vn 0.0256 0.0519 -0.9983
vn 0.0608 0.0190 -0.9980
vn 0.0257 0.0160 -0.9995
vn 0.0666 -0.1074 -0.9920
vn 0.0255 -0.1250 -0.9918
vn 0.0225 0.0668 -0.9975
vn 0.0458 0.0708 -0.9964
vn 0.0256 0.0002 -0.9997
vn 0.0243 0.0784 -0.9966
vn 0.1267 0.0259 -0.9916
vn 0.3149 -0.3103 -0.8970
vn 0.2604 -0.3273 -0.9083
vn -0.0439 -0.0955 -0.9945
vn -0.0573 -0.1618 -0.9852
vn 0.0180 -0.9975 -0.0680
vn -0.9239 0.3461 -0.1632
vn -0.0282 -0.9929 0.1152
vn -0.9099 0.4147 -0.0086
vn 0.0013 -0.9987 -0.0508
vn -0.9985 -0.0482 -0.0257
vn -0.9981 -0.0357 0.0507
vn 0.0490 -0.9967 -0.0651
vn 0.0749 -0.9972 0.0019
vn 0.9635 0.2222 0.1494
vn -0.9919 -0.1141 -0.0550
vn -0.9853 -0.1687 -0.0253
vn -0.7347 0.6781 -0.0189
vn 0.8315 -0.5551 0.0212
vn 0.6966 -0.7175 -0.0064
vn 0.9791 0.2020 0.0252
vn 0.6915 0.7223 0.0082
vn 0.9193 -0.3927 0.0236
vn 0.9930 0.0058 0.1182
vn -0.8588 0.5117 0.0234
vn 0.9991 -0.0274 0.0311
vn -0.8312 0.5436 -0.1167
vn -0.7992 -0.5979 -0.0610
vn 0.0000 -1.0000 -0.0000
vn 0.7538 0.6568 0.0194
vn 0.0005 -0.9999 -0.0165
vn 0.7936 -0.6073 0.0368
vn 0.7267 -0.6854 0.0468
vn -0.9364 0.3375 0.0962
vn -0.5316 0.8469 0.0147
vn -0.7014 0.7108 -0.0533
vn -0.0019 -0.9976 0.0689
vn 0.0790 -0.9969 0.0020
vn -0.9348 -0.3545 -0.0240
vn 0.9874 -0.1513 0.0463
vn -0.9916 -0.0817 -0.0998
vn -0.9150 -0.3991 -0.0587
vn 0.9328 0.3525 -0.0752
vn -0.4875 0.8681 -0.0935
vn -0.9260 0.3766 -0.0275
vn 0.7963 -0.5947 0.1108
vn -0.9459 0.3234 -0.0243
vn 0.9559 0.2910 0.0402
vn -0.0099 -1.0000 -0.0003
vn 0.9378 0.3324 -0.0999
vn -0.0023 -0.9924 0.1234
vn -0.9626 -0.2701 0.0182
vn -0.5938 0.8043 -0.0208
vn 0.8581 0.5032 0.1028
vn -0.1160 -0.9932 -0.0111
vn -0.0000 -1.0000 0.0001
vn 0.1481 -0.9890 -0.0049
vn 0.4789 0.8568 -0.1914
vn -0.8248 0.5615 -0.0665
vn -0.9091 0.4159 -0.0234
vn 0.6313 0.7740 -0.0488
vn -0.5430 0.8380 0.0534
vn -0.8121 -0.5832 -0.0209
vn 0.9990 0.0152 0.0431
vn -0.8693 -0.4178 -0.2642
vn 0.9375 0.3341 0.0977
vn 0.9996 0.0114 0.0257
vn 0.8738 -0.4771 0.0936
vn 0.9153 0.4020 0.0235
vn 0.9521 0.3048 0.0245
vn 0.4970 0.8677 0.0063
vn -0.7866 -0.6173 0.0149
vn 0.2436 0.9699 0.0063
vn -0.5445 0.8382 0.0296
vn 0.9946 0.1004 0.0256
vn 0.9910 -0.1310 -0.0265
vn 0.0361 -0.9993 0.0009
vn 0.7749 0.6318 0.0199
vn 0.8738 0.4851 0.0338
usemtl Model_1__38_GREEN_LIGHTEST_LPUP_2_90f43f3e-cbc6-4bb5-8210-1484f
s off
f 19/1/1 1/2/1 21/3/1
f 50/4/2 51/5/2 2/6/2
f 29/7/3 10/8/3 11/9/3
f 3/10/4 33/11/4 31/12/4
f 13/13/5 12/14/5 4/15/5
f 64/16/6 6/17/6 5/18/6
f 7/19/7 39/20/7 14/21/7
f 15/22/8 40/23/8 8/24/8
f 9/25/9 43/26/9 74/27/9
f 17/28/10 73/29/10 16/30/10
f 44/31/11 75/32/11 18/33/11
f 21/3/12 20/34/12 19/1/12
f 21/3/13 46/35/13 20/34/13
f 20/34/14 47/36/14 22/37/14
f 20/34/10 46/35/10 47/36/10
f 49/38/10 23/39/10 24/40/10
f 49/38/10 48/41/10 23/39/10
f 50/4/15 24/40/15 51/5/15
f 50/4/16 49/38/16 24/40/16
f 26/42/10 52/43/10 25/44/10
f 26/42/10 53/45/10 52/43/10
f 26/42/10 54/46/10 53/45/10
f 29/7/17 27/47/17 10/8/17
f 29/7/18 28/48/18 27/47/18
f 55/49/10 58/50/10 57/51/10
f 58/50/10 30/52/10 56/53/10
f 33/11/19 32/54/19 31/12/19
f 33/11/20 34/55/20 32/54/20
f 12/14/21 59/56/21 4/15/21
f 12/14/22 35/57/22 59/56/22
f 61/58/10 62/59/10 60/60/10
f 62/59/10 61/58/10 36/61/10
f 62/59/10 36/61/10 63/62/10
f 64/16/23 38/63/23 37/64/23
f 64/16/24 5/18/24 38/63/24
f 39/20/10 65/65/10 66/66/10
f 39/20/10 7/19/10 65/65/10
f 40/23/25 67/67/25 68/68/25
f 40/23/26 15/22/26 67/67/26
f 70/69/10 69/70/10 41/71/10
f 70/69/10 41/71/10 71/72/10
f 72/73/10 70/69/10 71/72/10
f 72/73/10 71/72/10 42/74/10
f 16/30/27 74/27/27 43/26/27
f 16/30/28 73/29/28 74/27/28
f 76/75/29 75/32/29 44/31/29
f 76/75/30 45/76/30 75/32/30
f 58/77/10 56/78/10 57/79/10
f 95/80/31 97/81/31 77/82/31
f 126/83/32 78/84/32 127/85/32
f 105/86/33 87/87/33 86/88/33
f 79/89/34 107/90/34 109/91/34
f 89/92/35 80/93/35 88/94/35
f 140/95/36 81/96/36 82/97/36
f 83/98/37 90/99/37 115/100/37
f 91/101/38 84/102/38 116/103/38
f 85/104/39 150/105/39 119/106/39
f 93/107/40 92/108/40 149/109/40
f 120/110/41 94/111/41 151/112/41
f 97/81/42 95/80/42 96/113/42
f 97/81/43 96/113/43 122/114/43
f 96/113/44 98/115/44 123/116/44
f 96/113/45 123/116/45 122/114/45
f 125/117/46 100/118/46 99/119/46
f 125/117/46 99/119/46 124/120/46
f 126/83/47 127/85/47 100/118/47
f 126/83/48 100/118/48 125/117/48
f 102/121/49 101/122/49 128/123/49
f 102/121/49 128/123/49 129/124/49
f 102/121/49 129/124/49 130/125/49
f 105/86/50 86/88/50 103/126/50
f 105/86/51 103/126/51 104/127/51
f 131/128/49 133/129/49 134/130/49
f 134/130/49 132/131/49 106/132/49
f 109/91/52 107/90/52 108/133/52
f 109/91/53 108/133/53 110/134/53
f 88/94/54 80/93/54 135/135/54
f 88/94/55 135/135/55 111/136/55
f 137/137/49 136/138/49 138/139/49
f 138/139/49 112/140/49 137/137/49
f 138/139/49 139/141/49 112/140/49
f 140/95/56 113/142/56 114/143/56
f 140/95/57 114/143/57 81/96/57
f 115/100/44 142/144/44 141/145/44
f 115/100/58 141/145/58 83/98/58
f 116/103/59 144/146/59 143/147/59
f 116/103/60 143/147/60 91/101/60
f 146/148/49 117/149/49 145/150/49
f 146/148/49 147/151/49 117/149/49
f 148/152/49 147/151/49 146/148/49
f 148/152/49 118/153/49 147/151/49
f 92/108/61 119/106/61 150/105/61
f 92/108/62 150/105/62 149/109/62
f 152/154/63 120/110/63 151/112/63
f 152/154/64 151/112/64 121/155/64
f 134/156/49 133/157/49 132/158/49
f 68/68/65 67/67/65 143/147/65 144/146/65
f 12/14/66 13/13/66 89/92/66 88/94/66
f 17/28/67 16/30/67 92/108/67 93/107/67
f 48/41/68 49/38/68 125/117/68 124/120/68
f 27/47/69 28/48/69 104/127/69 103/126/69
f 61/58/70 60/60/70 136/138/70 137/137/70
f 5/18/71 6/17/71 82/97/71 81/96/71
f 37/64/72 38/63/72 114/143/72 113/142/72
f 66/66/73 65/65/73 141/145/73 142/144/73
f 11/9/74 10/8/74 86/88/74 87/87/74
f 28/48/75 29/7/75 105/86/75 104/127/75
f 69/70/76 70/69/76 146/148/76 145/150/76
f 26/42/77 25/44/77 101/122/77 102/121/77
f 31/12/78 32/54/78 108/133/78 107/90/78
f 19/1/79 20/34/79 96/113/79 95/80/79
f 57/79/80 56/78/80 132/158/80 133/157/80
f 39/20/81 66/66/81 142/144/81 115/100/81
f 52/43/82 53/45/82 129/124/82 128/123/82
f 8/24/83 40/23/83 116/103/83 84/102/83
f 15/22/84 8/24/84 84/102/84 91/101/84
f 10/8/85 27/47/85 103/126/85 86/88/85
f 50/4/86 2/6/86 78/84/86 126/83/86
f 16/30/87 43/26/87 119/106/87 92/108/87
f 23/39/88 48/41/88 124/120/88 99/119/88
f 60/60/89 62/59/89 138/139/89 136/138/89
f 32/54/90 34/55/90 110/134/90 108/133/90
f 24/40/91 23/39/91 99/119/91 100/118/91
f 76/75/92 44/31/92 120/110/92 152/154/92
f 29/7/93 11/9/93 87/87/93 105/86/93
f 46/35/94 21/3/94 97/81/94 122/114/94
f 18/33/95 75/32/95 151/112/95 94/111/95
f 44/31/96 18/33/96 94/111/96 120/110/96
f 56/53/97 30/52/97 106/132/97 132/131/97
f 30/52/98 58/50/98 134/130/98 106/132/98
f 40/23/99 68/68/99 144/146/99 116/103/99
f 70/69/76 72/73/76 148/152/76 146/148/76
f 67/67/100 15/22/100 91/101/100 143/147/100
f 38/63/101 5/18/101 81/96/101 114/143/101
f 13/13/102 4/15/102 80/93/102 89/92/102
f 75/32/103 45/76/103 121/155/103 151/112/103
f 34/55/104 33/11/104 109/91/104 110/134/104
f 51/5/105 24/40/105 100/118/105 127/85/105
f 54/46/106 26/42/106 102/121/106 130/125/106
f 64/16/107 37/64/107 113/142/107 140/95/107
f 53/45/108 54/46/108 130/125/108 129/124/108
f 45/76/109 76/75/109 152/154/109 121/155/109
f 59/56/110 35/57/110 111/136/110 135/135/110
f 35/57/111 12/14/111 88/94/111 111/136/111
f 47/36/112 46/35/112 122/114/112 123/116/112
f 6/17/113 64/16/113 140/95/113 82/97/113
f 65/65/114 7/19/114 83/98/114 141/145/114
f 22/37/115 47/36/115 123/116/115 98/115/115
f 20/34/116 22/37/116 98/115/116 96/113/116
f 41/71/88 69/70/88 145/150/88 117/149/88
f 9/25/117 74/27/117 150/105/117 85/104/117
f 49/38/118 50/4/118 126/83/118 125/117/118
f 58/50/119 55/49/119 131/128/119 134/130/119
f 74/27/120 73/29/120 149/109/120 150/105/120
f 21/3/121 1/2/121 77/82/121 97/81/121
f 36/61/122 61/58/122 137/137/122 112/140/122
f 4/15/123 59/56/123 135/135/123 80/93/123
f 43/26/124 9/25/124 85/104/124 119/106/124
f 3/10/125 31/12/125 107/90/125 79/89/125
f 25/44/126 52/43/126 128/123/126 101/122/126
f 1/2/127 19/1/127 95/80/127 77/82/127
f 55/49/128 57/51/128 133/129/128 131/128/128
f 42/74/129 71/72/129 147/151/129 118/153/129
f 14/21/130 39/20/130 115/100/130 90/99/130
f 7/19/131 14/21/131 90/99/131 83/98/131
f 72/73/132 42/74/132 118/153/132 148/152/132
f 33/11/133 3/10/133 79/89/133 109/91/133
f 71/72/134 41/71/134 117/149/134 147/151/134
f 2/6/135 51/5/135 127/85/135 78/84/135
f 63/62/136 36/61/136 112/140/136 139/141/136
f 62/59/137 63/62/137 139/141/137 138/139/137
f 73/29/138 17/28/138 93/107/138 149/109/138
