# Blender 3.4.1
# www.blender.org
mtllib Wall6.mtl
o wall_6
v -2.360888 1.647308 -2.774576
v -2.360888 1.647308 2.787447
v -2.360888 -0.921022 2.787447
v -2.360888 -0.921022 -2.774576
v -2.460888 1.647308 2.887447
v -2.460888 1.647308 -2.874576
v -2.460888 -0.921022 -2.874576
v -2.460888 -0.921022 2.887447
v -2.360888 1.647308 2.787447
v -2.360888 1.647308 -2.774576
v -2.460888 1.647308 -2.874576
v -2.460888 1.647308 2.887447
vn 1.0000 -0.0000 -0.0000
vn -1.0000 -0.0000 -0.0000
vn -0.0000 1.0000 -0.0000
vn 0.8311 0.5562 -0.0000
vn -0.8173 0.5762 -0.0000
s 0
usemtl Material_33
f 4//1 1//1 2//1
f 4//1 2//1 3//1
usemtl Material_34
f 8//2 5//2 6//2
f 8//2 6//2 7//2
s 1
usemtl Material_35
f 9//3 10//4 11//3
f 9//3 11//3 12//5
