# Blender v3.0.0 OBJ File: 'AAAAA.blend'
# www.blender.org
mtllib shrub_round__19_.mtl
o shrub_round__19__Scene.015
v 7.681456 -1.756691 -10.813657
v 7.628666 -2.085802 -10.967894
v 7.864808 -1.719350 -11.105588
v 8.056276 -2.552382 -10.726633
v 8.056268 -2.536770 -10.948934
v 7.681459 -2.314609 -10.816236
v 8.478737 -1.534416 -10.639814
v 8.535953 -1.518926 -10.903278
v 8.910772 -1.756691 -10.813657
v 8.056273 -1.518667 -10.857890
v 8.296114 -1.553079 -11.069039
v 8.358809 -2.551888 -10.643728
v 8.535966 -2.177359 -10.356619
v 8.699856 -2.373717 -10.524548
v 8.699874 -1.716568 -10.502613
v 8.296114 -1.755209 -10.371129
v 8.953011 -2.034710 -10.641435
v 8.910767 -2.314158 -10.725616
v 7.639217 -2.034710 -10.641435
v 7.892354 -1.716568 -10.502613
v 8.056264 -1.893985 -11.273376
v 8.421510 -1.849030 -11.288489
v 7.892355 -2.354834 -11.127517
v 8.056260 -2.136310 -11.289139
v 8.535975 -1.935113 -10.341040
v 7.864805 -2.352018 -10.524462
v 8.170718 -2.222345 -10.341578
v 8.535968 -2.086984 -11.289001
v 8.953002 -1.937863 -10.988008
v 8.727421 -1.719350 -11.105589
v 8.170718 -1.517821 -10.639808
v 8.056255 -1.984396 -10.341079
v 8.296114 -2.316258 -11.259151
v 8.727440 -2.354775 -11.107688
v 8.931893 -2.225154 -10.947803
v 8.421509 -2.553550 -10.990248
v 8.650404 -2.519598 -10.817138
vt 0.271914 0.805134
vt 0.349562 0.797980
vt 0.311638 0.898511
vt 0.173116 0.152611
vt 0.123945 0.014775
vt 0.242491 0.105801
vt 0.260052 0.659943
vt 0.328640 0.597553
vt 0.320525 0.677836
vt 0.296841 0.736791
vt 0.348050 0.724551
vt 0.189769 0.236659
vt 0.182918 0.375556
vt 0.054809 0.381260
vt 0.162330 0.651424
vt 0.225774 0.597041
vt 0.290114 0.506242
vt 0.331465 0.396873
vt 0.202534 0.852256
vt 0.200401 0.740234
vt 0.438012 0.737251
vt 0.431901 0.814442
vt 0.468775 0.999221
vt 0.514209 0.880509
vt 0.065386 0.503800
vt 0.110458 0.553418
vt 0.004455 0.270535
vt 0.047632 0.137827
vt 0.507908 0.727745
vt 0.385997 0.664093
vt 0.400777 0.586219
vt 0.252095 0.701601
vt 0.098922 0.713325
vt 0.055884 0.900256
vt 0.231400 0.992669
vt 0.608979 0.604833
vt 0.608979 0.834609
vt 0.466638 0.499003
vt 0.279745 0.000779
vt 0.309599 0.180135
vt 0.408401 0.070240
vt 0.431412 0.224555
vt 0.293671 0.271778
vt 0.000779 0.699103
vt 0.438154 0.344309
vn -0.8131 0.3488 -0.4661
vn -0.5245 -0.8493 -0.0596
vn 0.5015 0.8505 0.1589
vn -0.0164 0.9837 -0.1789
vn 0.0529 -0.6232 0.7803
vn 0.1564 0.7083 0.6884
vn 0.7012 -0.3007 0.6464
vn -0.7780 0.4120 0.4743
vn -0.1033 0.5638 -0.8194
vn -0.6053 -0.1271 -0.7857
vn 0.7780 0.4120 0.4743
vn 0.5754 -0.0525 0.8162
vn -0.1175 -0.7067 0.6977
vn -0.1593 0.5876 -0.7933
vn 0.5509 0.1248 -0.8252
vn -0.1589 0.7019 0.6943
vn -0.5897 0.1208 0.7986
vn 0.5201 0.8176 0.2472
vn 0.0062 0.9982 0.0600
vn -0.5725 -0.1073 0.8129
vn 0.2355 0.4574 0.8575
vn -0.7564 -0.4736 -0.4512
vn -0.5606 -0.7891 0.2511
vn 0.5953 -0.1740 0.7845
vn 0.2720 -0.3986 -0.8759
vn 0.2616 0.7980 -0.5429
vn 0.6138 -0.1535 -0.7744
vn 0.0409 0.7582 0.6508
vn 0.6390 -0.0622 -0.7667
vn -0.5608 -0.7794 -0.2793
vn 0.1099 -0.6369 0.7631
vn 0.4343 0.2108 -0.8758
vn 0.7372 0.5498 -0.3927
vn -0.1660 -0.7745 0.6104
vn -0.6063 0.0940 -0.7897
vn 0.0152 -0.1447 -0.9894
vn -0.9807 -0.1860 0.0608
vn 0.1829 -0.6933 -0.6971
vn 0.4029 -0.8378 -0.3684
vn -0.5406 0.8074 -0.2363
vn 0.0065 -0.0642 0.9979
vn -0.9879 0.1549 0.0077
vn -0.4343 -0.2107 0.8758
vn -0.5959 0.0521 -0.8014
vn 0.1807 0.6341 -0.7519
vn 0.0391 0.0167 0.9991
vn 0.5606 0.7891 -0.2512
vn -0.0463 -0.9989 -0.0036
vn -0.0393 -0.0167 -0.9991
vn 0.6000 0.1332 0.7888
vn -0.2850 0.8405 -0.4607
vn -0.0150 0.1454 0.9893
vn -0.7978 -0.4014 0.4499
vn 0.9869 -0.1584 0.0304
vn 0.9969 -0.0762 -0.0213
vn 0.0208 -0.9973 -0.0700
vn 0.3212 -0.8681 0.3785
vn -0.2530 0.3814 0.8891
vn 0.9823 0.1805 0.0504
vn -0.0064 0.0649 -0.9979
vn -0.2359 -0.4573 -0.8575
vn 0.5197 -0.7964 0.3092
vn 0.1262 -0.9916 0.0276
vn 0.0538 0.9980 -0.0321
vn -0.1373 -0.7541 -0.6422
vn -0.1391 -0.7541 -0.6419
vn -0.1460 -0.7537 -0.6408
vn -0.1066 -0.7697 -0.6295
vn 0.6465 -0.7245 -0.2392
vn 0.6465 -0.7243 -0.2395
vn 0.6466 -0.7248 -0.2378
vn 0.6513 -0.7238 -0.2280
vn -0.4789 0.8423 0.2474
vn -0.4790 0.8421 0.2481
vn -0.4757 0.8442 0.2471
vn -0.5017 0.8332 0.2327
usemtl _35_GREEN_MEDIUM_LPUP
s 1
f 1/1/1 3/2/1 2/3/1
s 2
f 4/4/2 6/5/2 5/6/2
s 3
f 7/7/3 9/8/3 8/9/3
s 4
f 10/10/4 8/9/4 11/11/4
s 5
f 12/12/5 14/13/5 13/14/5
s 6
f 7/7/6 16/15/6 15/16/6
s 7
f 17/17/7 14/13/7 18/18/7
s 8
f 19/19/8 20/20/8 1/1/8
s 9
f 11/11/9 22/21/9 21/22/9
s 10
f 23/23/10 2/3/10 24/24/10
s 11
f 9/8/11 15/16/11 17/17/11
s 12
f 13/25/12 17/17/12 25/26/12
s 13
f 12/12/13 27/27/13 26/28/13
s 14
f 11/11/14 21/22/14 3/2/14
s 15
f 28/29/15 30/30/15 29/31/15
s 16
f 20/20/16 16/15/16 31/32/16
s 17
f 32/33/17 20/20/17 19/19/17
s 18
f 15/16/18 9/8/18 7/7/18
s 19
f 7/7/19 8/9/19 10/10/19
s 20
f 32/33/20 19/19/20 26/34/20
s 21
f 25/26/21 15/16/21 16/15/21
s 22
f 2/3/22 23/23/22 6/35/22
s 23
f 26/28/23 6/5/23 4/4/23
s 24
f 14/13/24 17/17/24 13/25/24
s 25
f 28/29/25 34/36/25 33/37/25
s 26
f 11/11/26 8/9/26 30/30/26
s 27
f 28/29/27 29/31/27 35/38/27
s 28
f 31/32/28 16/15/28 7/7/28
s 29
f 28/29/29 35/38/29 34/36/29
s 30
f 5/6/30 6/5/30 23/39/30
s 31
f 12/12/31 13/14/31 27/27/31
s 32
f 22/21/32 30/30/32 28/29/32
s 33
f 29/31/33 30/30/33 9/8/33
s 34
f 26/28/34 4/4/34 12/12/34
s 35
f 21/22/35 2/3/35 3/2/35
s 36
f 24/24/36 28/29/36 33/37/36
s 37
f 19/19/37 2/3/37 6/35/37
s 38
f 36/40/38 33/41/38 34/42/38
s 39
f 34/42/39 37/43/39 36/40/39
s 40
f 10/10/40 3/2/40 1/1/40
s 41
f 13/25/41 25/26/41 32/33/41
s 42
f 1/1/42 2/3/42 19/19/42
s 43
f 26/34/43 27/44/43 32/33/43
s 44
f 24/24/44 2/3/44 21/22/44
s 45
f 11/11/45 30/30/45 22/21/45
s 46
f 27/44/46 13/25/46 32/33/46
s 47
f 8/9/47 9/8/47 30/30/47
s 48
f 5/6/48 36/40/48 12/12/48
s 49
f 21/22/49 22/21/49 28/29/49
s 50
f 25/26/50 17/17/50 15/16/50
s 51
f 10/10/51 11/11/51 3/2/51
s 52
f 32/33/52 25/26/52 16/15/52
s 53
f 6/35/53 26/34/53 19/19/53
s 54
f 18/18/54 35/38/54 17/17/54
s 55
f 35/38/55 29/31/55 17/17/55
s 56
f 4/4/56 5/6/56 12/12/56
s 57
f 12/12/57 37/43/57 14/13/57
s 58
f 32/33/58 16/15/58 20/20/58
s 59
f 17/17/59 29/31/59 9/8/59
s 60
f 24/24/60 21/22/60 28/29/60
s 61
f 23/23/61 24/24/61 33/37/61
s 62
f 37/43/62 18/18/62 14/13/62
s 63
f 12/12/63 36/40/63 37/43/63
s 64
f 31/32/64 7/7/64 10/10/64
s 65
f 23/39/65 33/41/66 5/6/67
f 5/6/67 33/41/66 36/40/68
s 66
f 37/43/69 34/42/70 35/45/71
f 37/43/69 35/45/71 18/18/72
s 67
f 20/20/73 31/32/74 10/10/75
f 10/10/75 1/1/76 20/20/73
