# Blender v3.0.0 OBJ File: 'AAAAA.blend'
# www.blender.org
mtllib stone_round__10_.mtl
o stone_round__10__Scene.012
v 10.874215 -1.339035 -7.095813
v 10.724927 -0.738766 -7.479010
v 11.528389 -1.160802 -6.856700
v 11.859993 -0.880966 -8.885457
v 11.109666 -0.683735 -7.959238
v 10.876237 -1.022844 -8.600940
v 10.411447 -1.212875 -8.324805
v 11.873783 -1.586382 -8.804408
v 10.704480 -1.619765 -8.340040
v 11.924695 -1.816776 -8.066957
v 10.794272 -1.391875 -8.769259
v 10.363943 -1.216283 -7.652633
v 12.639095 -1.316157 -7.654341
v 12.437125 -0.715035 -8.192142
v 12.614154 -1.171191 -8.504709
v 11.552879 -1.324630 -9.065110
v 11.156813 -1.786402 -7.782777
v 11.850151 -0.519023 -8.283672
v 12.271657 -1.121648 -7.163697
v 11.392697 -0.722714 -7.236097
v 12.135420 -0.607042 -7.511693
v 12.212962 -1.626027 -7.312199
v 11.435169 -1.632145 -7.074389
v 10.543830 -1.627054 -7.710609
v 12.423691 -1.648088 -8.427140
v 12.174868 -1.178389 -9.082761
vt 0.348033 0.071539
vt 0.370561 0.215010
vt 0.238942 0.183886
vt 0.158020 0.342124
vt 0.112437 0.232130
vt 0.206731 0.238601
vt 0.116840 0.154662
vt 0.070911 0.679870
vt 0.253390 0.677763
vt 0.173994 0.955300
vt 0.000711 0.210182
vt 0.020908 0.061171
vt 0.196690 0.108352
vt 0.048724 0.938993
vt 0.367079 0.458324
vt 0.209435 0.431289
vt 0.242037 0.361310
vt 0.075577 0.350894
vt 0.024146 0.473060
vt 0.312295 0.849032
vt 0.217987 0.311134
vt 0.372887 0.332760
vt 0.281463 0.237495
vt 0.281290 0.308729
vt 0.503347 0.362211
vt 0.506585 0.169025
vt 0.435331 0.610475
vt 0.322156 0.999289
vt 0.506585 0.956341
vt 0.169302 0.554408
vt 0.138446 0.391577
vt 0.483647 0.794295
vt 0.162322 0.000711
vn -0.4100 0.4161 0.8116
vn -0.2397 0.8917 -0.3840
vn -0.4781 0.8298 -0.2879
vn -0.0886 -0.9525 -0.2915
vn -0.7404 -0.5171 -0.4294
vn -0.6806 0.2664 0.6825
vn -0.1700 -0.8552 -0.4896
vn 0.9388 0.3431 0.0310
vn -0.1614 -0.7887 -0.5932
vn -0.1124 -0.9734 -0.1998
vn -0.3856 0.7879 -0.4802
vn -0.7873 0.6143 -0.0525
vn 0.7542 0.5601 0.3428
vn -0.3052 0.5313 -0.7903
vn -0.8111 -0.5819 -0.0603
vn -0.0507 0.9960 0.0735
vn 0.2823 0.5876 0.7584
vn 0.3443 0.8070 -0.4798
vn 0.2810 -0.3010 0.9113
vn 0.0460 -0.9725 0.2282
vn -0.1649 -0.8561 0.4897
vn 0.5798 -0.8146 -0.0156
vn 0.5315 0.6094 -0.5883
vn 0.1016 -0.9475 -0.3030
vn 0.5674 -0.7069 -0.4224
vn -0.0982 0.9840 0.1485
vn -0.2281 -0.3707 0.9003
vn 0.3612 -0.4489 0.8173
vn -0.1662 0.9790 0.1178
vn 0.0651 -0.9800 0.1878
vn 0.8478 0.4322 0.3073
vn 0.1623 0.6742 0.7205
vn -0.3586 0.4521 -0.8167
vn -0.5848 0.4406 -0.6811
vn 0.9195 -0.3822 -0.0921
vn 0.3181 0.9480 -0.0094
vn -0.4935 0.8302 -0.2592
vn -0.2594 -0.9627 -0.0773
vn -0.9022 -0.3620 -0.2345
vn -0.1305 0.4484 -0.8842
vn -0.4438 -0.8234 0.3537
vn 0.4611 -0.8547 0.2386
vn 0.5080 -0.3321 -0.7948
vn 0.4944 0.7791 -0.3854
vn 0.1238 -0.6200 -0.7748
vn -0.7189 -0.3955 0.5716
vn 0.7151 -0.2727 0.6436
vn -0.2924 0.5727 0.7659
usemtl _14_BROWN_LIGHTEST_LPUP
s 1
f 1/1/1 3/2/1 2/3/1
s 2
f 4/4/2 6/5/2 5/6/2
s 3
f 2/3/3 5/6/3 7/7/3
s 4
f 8/8/4 10/9/4 9/10/4
s 5
f 7/7/5 11/11/5 9/12/5
s 6
f 12/13/6 1/1/6 2/3/6
s 7
f 8/8/7 9/10/7 11/14/7
s 8
f 13/15/8 15/16/8 14/17/8
s 9
f 16/18/9 8/19/9 11/11/9
s 10
f 10/9/10 17/20/10 9/10/10
s 11
f 18/21/11 4/4/11 5/6/11
s 12
f 12/13/12 2/3/12 7/7/12
s 13
f 19/22/13 13/15/13 14/17/13
s 14
f 4/4/14 16/18/14 6/5/14
s 15
f 12/13/15 7/7/15 9/12/15
s 16
f 20/23/16 5/6/16 2/3/16
s 17
f 19/22/17 21/24/17 3/2/17
s 18
f 18/21/18 14/17/18 4/4/18
s 19
f 22/25/19 19/22/19 23/26/19
s 20
f 10/9/20 22/27/20 17/20/20
s 21
f 24/28/21 17/20/21 1/29/21
s 22
f 22/27/22 10/9/22 13/15/22
s 23
f 14/17/23 15/16/23 4/4/23
s 24
f 25/30/24 10/9/24 8/8/24
s 25
f 26/31/25 15/16/25 8/19/25
s 26
f 21/24/26 18/21/26 20/23/26
s 27
f 23/26/27 3/2/27 1/1/27
s 28
f 19/22/28 3/2/28 23/26/28
s 29
f 18/21/29 5/6/29 20/23/29
s 30
f 22/27/30 23/32/30 17/20/30
s 31
f 21/24/31 19/22/31 14/17/31
s 32
f 21/24/32 20/23/32 3/2/32
s 33
f 16/18/33 11/11/33 6/5/33
s 34
f 6/5/34 11/11/34 7/7/34
s 35
f 25/30/35 15/16/35 13/15/35
s 36
f 18/21/36 21/24/36 14/17/36
s 37
f 5/6/37 6/5/37 7/7/37
s 38
f 17/20/38 24/28/38 9/10/38
s 39
f 24/33/39 12/13/39 9/12/39
s 40
f 26/31/40 16/18/40 4/4/40
s 41
f 17/20/41 23/32/41 1/29/41
s 42
f 10/9/42 25/30/42 13/15/42
s 43
f 15/16/43 25/30/43 8/19/43
s 44
f 15/16/44 26/31/44 4/4/44
s 45
f 16/18/45 26/31/45 8/19/45
s 46
f 12/13/46 24/33/46 1/1/46
s 47
f 19/22/47 22/25/47 13/15/47
s 48
f 3/2/48 20/23/48 2/3/48
