# Blender v3.2.0 OBJ File: 'Palm_Island.blend'
# www.blender.org
mtllib Island.mtl
o Island_Golf_no_trex.004
v 0.334929 0.005062 0.231279
v -0.364931 0.005061 0.227965
v -0.362846 0.005062 -0.212418
v 0.334929 0.071087 0.231279
v 0.337014 0.005062 -0.209105
v 0.337014 0.071087 -0.209105
v -0.105589 0.095846 -0.056177
v -0.102109 0.095846 -0.052749
v -0.101829 0.102449 -0.052427
v -0.107803 0.102449 -0.052834
v -0.104839 0.095846 -0.052032
v -0.101184 0.095846 -0.054457
v -0.107602 0.095846 -0.054894
v -0.107256 0.095846 -0.053100
v -0.102733 0.095846 -0.055982
v -0.104965 0.102449 -0.051726
v -0.056739 0.102449 -0.023692
v -0.003924 0.102449 0.009957
v 0.107697 0.102449 -0.061693
v -0.118871 0.102449 0.079405
v 0.203365 0.102449 0.142037
v 0.180267 0.102449 0.127302
v 0.016476 0.102449 -0.125679
v 0.070347 0.102449 -0.103381
v -0.216991 0.102449 -0.064354
v -0.100756 0.102449 -0.054409
v -0.050062 0.102449 -0.133154
v -0.119675 0.102449 -0.124948
v -0.102554 0.102449 -0.056180
v -0.105869 0.102449 -0.056406
v -0.177948 0.102449 -0.100765
v -0.219582 0.102449 0.021304
v -0.230762 0.102449 -0.020640
v -0.108205 0.102449 -0.054917
v -0.184708 0.102449 0.055438
v 0.337014 0.104100 -0.209105
v -0.127775 0.104100 -0.137446
v -0.193040 0.104099 -0.110361
v 0.024337 0.104100 -0.138206
v -0.127939 0.104099 0.091337
v 0.157589 0.104099 0.161720
v 0.334929 0.104100 0.231279
v 0.235128 0.104100 0.113440
v -0.364931 0.071087 0.227965
v -0.362846 0.104099 -0.212418
v -0.364931 0.104099 0.227965
v -0.362846 0.071087 -0.212418
v 0.214112 0.102449 0.115760
v 0.213993 0.102449 0.130299
v -0.252104 0.104099 -0.020898
v 0.126767 0.104100 -0.067257
v 0.086110 0.104100 -0.112637
v -0.239572 0.104099 0.026118
v -0.199588 0.104099 0.065254
v 0.161520 0.102449 0.148521
v 0.184602 0.102449 0.148600
v 0.218731 0.104100 0.151807
v 0.190076 0.104100 0.161830
v 0.234960 0.104100 0.133882
v -0.236767 0.104099 -0.069582
v -0.050247 0.104100 -0.146585
vt 0.430310 0.071890
vt 0.000100 0.356350
vt 0.359060 0.000100
vt 0.071350 0.428140
vt 0.573150 0.926650
vt 0.996800 0.641000
vt 0.644380 0.997140
vt 0.925570 0.570520
vt 0.071350 0.571790
vt 0.359430 0.999900
vt 0.000100 0.643660
vt 0.430680 0.928030
vt 0.925610 0.429470
vt 0.644100 0.002570
vt 0.996880 0.358920
vt 0.572830 0.073130
vt 0.602150 0.491260
vt 0.595590 0.495980
vt 0.595760 0.494430
vt 0.602070 0.498910
vt 0.585370 0.494960
vt 0.593270 0.493500
vt 0.592550 0.494820
vt 0.588730 0.488220
vt 0.588780 0.501720
vt 0.593020 0.496290
vt 0.594380 0.496830
vt 0.594720 0.493360
vt 0.596100 0.503580
vt 0.596200 0.486500
vt 0.578570 0.514240
vt 0.593290 0.611420
vt 0.549950 0.620900
vt 0.544280 0.495260
vt 0.497880 0.609730
vt 0.491770 0.495520
vt 0.550280 0.369470
vt 0.497530 0.381300
vt 0.310650 0.495660
vt 0.303160 0.470080
vt 0.302550 0.521110
vt 0.291510 0.509830
vt 0.287820 0.495650
vt 0.291810 0.481430
vt 0.578920 0.475540
vt 0.592610 0.378700
vt 0.630290 0.405930
vt 0.617110 0.484230
vt 0.658560 0.543130
vt 0.616860 0.506040
vt 0.668240 0.495040
vt 0.599780 0.470560
vt 0.658140 0.446950
vt 0.599700 0.519330
vt 0.630980 0.584030
vt 0.568440 0.494840
vt 0.491370 0.362220
vt 0.501560 0.143680
vt 0.550080 0.349480
vt 0.600830 0.360380
vt 0.644600 0.391960
vt 0.854340 0.500030
vt 0.676820 0.439260
vt 0.688530 0.495020
vt 0.677300 0.550770
vt 0.645490 0.597730
vt 0.501920 0.856170
vt 0.601660 0.629590
vt 0.550200 0.641190
vt 0.491980 0.628790
vt 0.290970 0.537070
vt 0.142600 0.499930
vt 0.273940 0.519810
vt 0.291430 0.453810
vt 0.267150 0.495650
vt 0.274010 0.471340
vn 1.0000 0.0000 0.0047
vn -1.0000 0.0000 -0.0047
vn -0.0047 -0.0000 1.0000
vn 0.0047 0.0000 -1.0000
vn 0.5368 0.0519 0.8421
vn -0.8778 0.0604 -0.4752
vn -0.2535 0.0401 -0.9665
vn -0.2178 0.0568 -0.9743
vn -0.0000 1.0000 0.0000
vn 0.4030 0.0701 -0.9125
vn 0.3634 0.0502 -0.9303
vn -0.7012 0.0404 0.7118
vn 0.9780 0.0887 -0.1888
vn 0.9780 0.0886 -0.1888
vn -0.0680 0.0317 0.9972
vn -0.0784 0.9969 -0.0006
vn 0.0773 0.9968 -0.0206
vn -0.0734 0.9963 0.0440
vn -0.0683 0.9958 0.0612
vn 0.0660 0.9955 -0.0674
vn 0.0392 0.9934 -0.1076
vn 0.0285 0.9929 -0.1157
vn -0.0430 0.9937 0.1039
vn -0.0137 0.9924 0.1222
vn 0.0004 0.9923 -0.1240
vn -0.0379 0.9934 -0.1083
vn -0.0679 0.9958 -0.0615
vn 0.0768 0.9968 0.0242
vn 0.0647 0.9955 0.0694
vn 0.0429 0.9937 0.1034
vn 0.0144 0.9925 0.1218
usemtl Model_1__9_BROWN_DARKEST_LPUP_5_4dd760ee-00ff-4fdb-aaff-68bf7d5
s off
f 6/1/1 1/2/1 5/3/1
f 6/1/1 4/4/1 1/2/1
f 44/5/2 3/6/2 2/7/2
f 44/5/2 47/8/2 3/6/2
f 4/9/3 2/10/3 1/11/3
f 4/9/3 44/12/3 2/10/3
f 47/13/4 5/14/4 3/15/4
f 47/13/4 6/16/4 5/14/4
f 30/17/5 13/18/5 7/19/5
f 30/17/5 34/20/5 13/18/5
f 9/21/6 12/22/6 8/23/6
f 9/21/6 26/24/6 12/22/6
f 16/25/7 8/23/7 11/26/7
f 16/25/8 9/21/8 8/23/8
f 8/23/9 14/27/9 11/26/9
f 14/27/9 8/23/9 12/22/9
f 14/27/9 12/22/9 13/18/9
f 13/18/9 12/22/9 15/28/9
f 13/18/9 15/28/9 7/19/9
f 10/29/10 11/26/10 14/27/10
f 10/29/11 16/25/11 11/26/11
f 26/24/12 15/28/12 12/22/12
f 26/24/12 29/30/12 15/28/12
f 34/20/13 14/27/13 13/18/13
f 34/20/14 10/29/14 14/27/14
f 29/30/15 7/19/15 15/28/15
f 29/30/15 30/17/15 7/19/15
usemtl Model_1__37_GREEN_LIGHT_LPUP_4_e5e3edcc-f123-41f2-8d5d-c2204dea
f 16/31/9 32/32/9 35/33/9
f 17/34/9 35/33/9 20/35/9
f 17/34/9 20/35/9 18/36/9
f 24/37/9 17/34/9 18/36/9
f 24/37/9 18/36/9 19/38/9
f 19/38/9 18/36/9 22/39/9
f 19/38/9 22/39/9 48/40/9
f 18/36/9 55/41/9 22/39/9
f 18/36/9 20/35/9 55/41/9
f 22/39/9 55/41/9 56/42/9
f 22/39/9 56/42/9 21/43/9
f 48/40/9 22/39/9 21/43/9
f 48/40/9 21/43/9 49/44/9
f 26/45/9 24/37/9 23/46/9
f 27/47/9 26/45/9 23/46/9
f 30/48/9 25/49/9 34/50/9
f 30/48/9 31/51/9 25/49/9
f 27/47/9 29/52/9 26/45/9
f 27/47/9 28/53/9 29/52/9
f 28/53/9 30/48/9 29/52/9
f 28/53/9 31/51/9 30/48/9
f 32/32/9 10/54/9 33/55/9
f 32/32/9 16/31/9 10/54/9
f 33/55/9 34/50/9 25/49/9
f 33/55/9 10/54/9 34/50/9
f 26/45/9 17/34/9 24/37/9
f 26/45/9 9/56/9 17/34/9
f 9/56/9 35/33/9 17/34/9
f 9/56/9 16/31/9 35/33/9
usemtl Model_1__36_GREEN_LPUP_4_627138c7-ee48-4449-8df9-16c652a68767_#
f 51/57/9 36/58/9 52/59/9
f 39/60/9 36/58/9 61/61/9
f 36/58/9 45/62/9 61/61/9
f 45/62/9 37/63/9 61/61/9
f 45/62/9 38/64/9 37/63/9
f 38/64/9 45/62/9 60/65/9
f 45/62/9 50/66/9 60/65/9
f 45/62/9 46/67/9 50/66/9
f 46/67/9 53/68/9 50/66/9
f 52/59/9 36/58/9 39/60/9
f 46/67/9 54/69/9 53/68/9
f 46/67/9 40/70/9 54/69/9
f 46/67/9 41/71/9 40/70/9
f 46/67/9 42/72/9 41/71/9
f 42/72/9 36/58/9 51/57/9
f 41/71/9 42/72/9 58/73/9
f 42/72/9 51/57/9 43/74/9
f 42/72/9 57/75/9 58/73/9
f 42/72/9 43/74/9 59/76/9
f 42/72/9 59/76/9 57/75/9
f 36/58/1 4/4/1 6/1/1
f 36/58/1 42/72/1 4/4/1
f 46/67/2 47/8/2 44/5/2
f 46/67/2 45/62/2 47/8/2
f 4/9/3 46/67/3 44/12/3
f 4/9/3 42/72/3 46/67/3
f 47/13/4 36/58/4 6/16/4
f 47/13/4 45/62/4 36/58/4
f 48/40/16 59/76/16 43/74/16
f 48/40/16 49/44/16 59/76/16
f 32/32/17 50/66/17 53/68/17
f 32/32/17 33/55/17 50/66/17
f 19/38/18 48/40/18 43/74/18
f 19/38/18 43/74/18 51/57/18
f 24/37/19 19/38/19 51/57/19
f 24/37/19 51/57/19 52/59/19
f 35/33/20 53/68/20 54/69/20
f 35/33/20 32/32/20 53/68/20
f 20/35/21 35/33/21 54/69/21
f 20/35/21 54/69/21 40/70/21
f 55/41/22 20/35/22 40/70/22
f 55/41/22 40/70/22 41/71/22
f 23/46/23 52/59/23 39/60/23
f 23/46/23 24/37/23 52/59/23
f 27/47/24 39/60/24 61/61/24
f 27/47/24 23/46/24 39/60/24
f 56/42/25 41/71/25 58/73/25
f 56/42/25 55/41/25 41/71/25
f 21/43/26 58/73/26 57/75/26
f 21/43/26 56/42/26 58/73/26
f 49/44/27 57/75/27 59/76/27
f 49/44/27 21/43/27 57/75/27
f 33/55/28 60/65/28 50/66/28
f 33/55/28 25/49/28 60/65/28
f 25/49/29 38/64/29 60/65/29
f 25/49/29 31/51/29 38/64/29
f 31/51/30 37/63/30 38/64/30
f 31/51/30 28/53/30 37/63/30
f 28/53/31 61/61/31 37/63/31
f 28/53/31 27/47/31 61/61/31
