# Blender 3.4.1
# www.blender.org
mtllib Wall5.mtl
o wall_5
v -2.360888 1.647308 2.787447
v -0.900891 1.647308 2.787454
v -0.900891 -0.921022 2.787454
v -2.360888 -0.921022 2.787447
v -2.360888 1.647308 2.787447
v -2.359888 1.312768 2.787447
v -2.359888 -0.113447 2.787447
v -1.086773 -0.113447 2.787453
v -1.086773 1.312768 2.787453
v -2.359888 1.312768 2.787447
v -2.460888 1.647308 2.887447
v -2.460888 -0.921022 2.887447
v -0.800890 -0.921022 2.887454
v -0.800890 1.647308 2.887454
v -2.460888 1.647308 2.887447
v -2.362687 1.312768 2.887447
v -1.086772 1.312768 2.887453
v -1.086772 -0.113447 2.887453
v -2.362687 -0.113447 2.887447
v -2.362687 1.312768 2.887447
v -0.900891 1.647308 2.787454
v -2.360888 1.647308 2.787447
v -2.460888 1.647308 2.887447
v -0.800890 1.647308 2.887454
v -1.086773 -0.113447 2.787453
v -1.086773 1.312768 2.787453
v -1.086772 -0.113447 2.887453
v -1.086772 1.312768 2.887453
v -2.359888 -0.113447 2.787447
v -1.086773 -0.113447 2.787453
v -2.362687 -0.113447 2.887447
v -1.086772 -0.113447 2.887453
v -1.086773 1.312768 2.787453
v -2.359888 1.312768 2.787447
v -1.086772 1.312768 2.887453
v -2.362687 1.312768 2.887447
vn -0.0000 -0.0000 -1.0000
vn 1.0000 -0.0000 -0.0026
vn 1.0000 -0.0000 -0.0040
vn -0.4049 -0.0000 -0.9143
vn -0.8726 -0.0000 -0.4884
vn -0.9198 -0.0000 0.3923
vn -0.9677 -0.0000 0.2522
vn -0.0000 -0.0000 1.0000
vn -0.0826 0.8275 0.5553
vn -0.0141 0.1874 0.9822
vn -0.9501 0.3120 -0.0000
vn 0.6995 0.1460 0.6995
vn -0.9501 0.3120 0.0003
vn -0.7284 0.1660 0.6648
vn -0.1426 0.3899 -0.9098
vn -0.2852 -0.0000 -0.9585
vn -0.1426 -0.0000 -0.9898
vn 0.9915 0.1273 0.0277
vn 0.0001 0.2549 -0.9670
vn -0.0000 0.2549 0.9670
vn -0.9918 0.1276 -0.0000
vn -0.9919 -0.1273 -0.0000
vn -0.0000 -0.2549 -0.9670
vn -0.0000 -0.2549 0.9670
vn 0.9914 -0.1276 0.0277
s 1
usemtl Material_29
f 4//1 5//2 6//3
f 4//1 6//3 7//1
f 10//4 1//5 2//1
f 9//1 10//4 2//1
s 0
f 9//1 2//1 3//1
f 8//1 9//1 3//1
f 8//1 3//1 4//1
f 8//1 4//1 7//1
s 1
usemtl Material_30
f 20//6 11//7 12//8
f 19//8 20//6 12//8
f 14//8 15//9 16//10
f 14//8 16//10 17//8
s 0
f 13//8 14//8 17//8
f 13//8 17//8 18//8
f 12//8 13//8 18//8
f 19//8 12//8 18//8
s 1
usemtl Material_31
f 21//11 22//12 23//13
f 21//11 23//13 24//14
usemtl Material_32
f 25//15 27//16 26//16
f 27//16 28//17 26//16
f 29//18 31//19 30//20
f 31//19 32//21 30//20
f 33//22 35//23 34//24
f 35//23 36//25 34//24
